<?xml version="1.0" encoding="utf-8"?>
<!-- Generator: Adobe Illustrator 19.2.1, SVG Export Plug-In . SVG Version: 6.00 Build 0)  -->
<svg version="1.1" id="Layer_1" xmlns="http://www.w3.org/2000/svg" xmlns:xlink="http://www.w3.org/1999/xlink" x="0px" y="0px"
	 viewBox="0 0 230 90" style="enable-background:new 0 0 230 90;" xml:space="preserve">
<style type="text/css">
	.st0{fill:#FFFFFF;}
</style>
<g>
	<g>
		<path class="st0" d="M25,26.7c-1.5,0-3,1.2-3,2.7v45.1c0,1.5,1.5,2.7,3,2.7c1.5,0,3-1.2,3-2.7V29.3C28,27.8,26.5,26.7,25,26.7z"/>
		<path class="st0" d="M98.2,22.1c-1.4-0.3-2.9,0.6-3.1,2.1L84.6,71c0,0,0,0,0,0.1c-0.3,1.4,0.6,2.9,2.1,3.1
			c1.4,0.3,2.9-0.6,3.1-2.1l10.4-46.9c0,0,0,0,0-0.1C100.5,23.8,99.6,22.4,98.2,22.1z"/>
		<g>
			<path class="st0" d="M106.7,54.9C106.6,54.8,106.6,54.8,106.7,54.9l-6.2-29.4l-2.8,12.6l3.8,17.8c0.3,1.4,1.7,2.4,3.1,2.1
				C106,57.7,106.9,56.3,106.7,54.9z"/>
		</g>
		<path class="st0" d="M40,2.7C40,1.2,39,0,37.5,0C36,0,35,1.2,35,2.7V59h0c0,0,0,0.3,0,0.4c0,1.5,1.2,2.7,2.7,2.7
			c1.5,0,2.7-1.3,2.7-2.8c0-0.1,0-0.3,0-0.3H40V2.7z"/>
		<path class="st0" d="M78.9,16.3c0.1-1.5-1.1-2.6-2.6-2.7C75,13.6,73.8,15,73.6,16h0L61.2,87h0c-0.1,0-0.1,0.5,0,0.8
			c0.3,1.5,1.6,2.4,3.1,2.1c1.2-0.2,2.1-1.2,2.2-2.4l12.4-70.7C78.9,16.7,78.9,16.5,78.9,16.3z"/>
		<g>
			<path class="st0" d="M63.8,70.4L56,28.2c-0.3-1.4-1.7-2.4-3.1-2.1c-1.4,0.3-2.4,1.7-2.1,3.1l10.4,56.3L63.8,70.4z"/>
		</g>
		<g>
			<path class="st0" d="M50.5,29.3l-6.1,28.8c-0.1,0.1-0.1,0.3-0.1,0.4c-0.3,1.4,0.6,2.9,2,3.2c1.4,0.3,2.7-0.5,3.1-1.8l0.1,0L53,43
				L50.5,29.3z"/>
		</g>
		<g>
			<path class="st0" d="M84.2,59.2l-5.1-41.9l-3.2,18.1l3,24.5c0.2,1.5,1.5,2.5,3,2.3C83.4,62,84.4,60.6,84.2,59.2z"/>
		</g>
		<rect x="30" y="50" class="st0" width="4" height="2"/>
		<polygon class="st0" points="99.6,50 95.5,50 95.2,52 99.9,52 		"/>
		<path class="st0" d="M5.3,50c-0.4,0-0.7,0.6-0.7,1c0,0.4,0.3,1,0.7,1H20v-2H5.3z"/>
		<path class="st0" d="M193.7,50h-86.8l0.3,2h86.5c0.4,0,0.7-0.6,0.7-1C194.4,50.6,194.1,50,193.7,50z"/>
	</g>
	<g>
		<g>
			<path class="st0" d="M117,39.7h-4.9V44c0,0.2-0.1,0.4-0.3,0.6c-0.2,0.2-0.5,0.3-0.8,0.3c-0.4,0-0.6-0.1-0.9-0.3
				c-0.2-0.2-0.3-0.4-0.3-0.6V32.9c0-0.2,0.1-0.4,0.3-0.6c0.2-0.2,0.5-0.3,0.9-0.3c0.3,0,0.6,0.1,0.8,0.3c0.2,0.2,0.3,0.4,0.3,0.6
				v4.6h4.9v-4.6c0-0.2,0.1-0.4,0.3-0.6c0.2-0.2,0.5-0.3,0.9-0.3c0.3,0,0.6,0.1,0.8,0.3c0.2,0.2,0.3,0.4,0.3,0.6V44
				c0,0.2-0.1,0.4-0.3,0.6c-0.2,0.2-0.5,0.3-0.8,0.3c-0.4,0-0.7-0.1-0.9-0.3c-0.2-0.2-0.3-0.4-0.3-0.6V39.7z"/>
			<path class="st0" d="M121.8,39.3c0-0.6,0.1-1.2,0.3-1.7c0.2-0.5,0.4-1,0.8-1.4c0.4-0.4,0.8-0.7,1.4-1c0.6-0.2,1.2-0.4,2-0.4
				c0.8,0,1.4,0.1,2,0.4c0.6,0.2,1,0.6,1.4,1c0.4,0.4,0.6,0.9,0.8,1.4c0.2,0.5,0.3,1.1,0.3,1.7v1.4c0,0.6-0.1,1.1-0.3,1.7
				c-0.2,0.5-0.4,1-0.8,1.4c-0.4,0.4-0.8,0.7-1.4,0.9c-0.6,0.2-1.2,0.3-2,0.3c-0.8,0-1.4-0.1-2-0.3c-0.6-0.2-1-0.5-1.4-0.9
				c-0.4-0.4-0.6-0.8-0.8-1.4c-0.2-0.5-0.3-1.1-0.3-1.7V39.3z M124.1,40.6c0,0.7,0.2,1.3,0.6,1.7c0.4,0.4,0.9,0.6,1.6,0.6
				c0.7,0,1.2-0.2,1.6-0.6c0.4-0.4,0.6-0.9,0.6-1.7v-1.4c0-0.8-0.2-1.4-0.6-1.8c-0.4-0.4-0.9-0.6-1.6-0.6c-0.7,0-1.2,0.2-1.6,0.6
				c-0.4,0.4-0.6,1-0.6,1.8V40.6z"/>
			<path class="st0" d="M132.9,43.6c0-0.1-0.1-0.2-0.1-0.3c0-0.1,0-0.2,0-0.4c0-0.1,0.1-0.2,0.2-0.3c0.1-0.1,0.2-0.2,0.3-0.2
				c0.2-0.1,0.3-0.1,0.5-0.1s0.3,0,0.4,0.1c0.1,0,0.2,0.1,0.3,0.2c0.1,0.1,0.2,0.1,0.3,0.2c0.4,0.3,1,0.4,1.8,0.4
				c0.4,0,0.8-0.1,1-0.3c0.3-0.2,0.4-0.4,0.4-0.7c0-0.3-0.1-0.5-0.4-0.7s-0.5-0.3-0.9-0.5c-0.4-0.1-0.7-0.2-1.2-0.4
				c-0.4-0.1-0.8-0.3-1.2-0.5c-0.4-0.2-0.7-0.5-0.9-0.8c-0.2-0.3-0.4-0.8-0.4-1.4c0-0.9,0.3-1.7,1-2.2c0.6-0.6,1.5-0.9,2.6-0.9
				c0.5,0,0.9,0,1.3,0.1c0.4,0.1,0.7,0.2,0.9,0.3c0.2,0.1,0.4,0.2,0.6,0.4c0.1,0.1,0.2,0.3,0.3,0.4c0.1,0.2,0.1,0.4,0.1,0.6
				c0,0.2-0.1,0.4-0.3,0.6c-0.3,0.2-0.5,0.2-0.7,0.2c-0.2-0.1-0.4-0.1-0.6-0.2c-0.1-0.1-0.3-0.1-0.5-0.2c-0.2-0.1-0.6-0.1-1-0.1
				c-0.4,0-0.7,0.1-1,0.3c-0.2,0.2-0.3,0.5-0.3,0.8c0,0.2,0.1,0.4,0.3,0.6c0.2,0.1,0.5,0.3,0.9,0.4c0.3,0.1,0.7,0.2,1.1,0.4
				c0.4,0.1,0.8,0.3,1.1,0.5c0.3,0.2,0.6,0.5,0.9,0.9c0.2,0.4,0.3,0.9,0.3,1.5c0,0.9-0.3,1.6-1,2.2c-0.6,0.5-1.5,0.8-2.6,0.8
				c-0.4,0-0.8,0-1.2-0.1c-0.4-0.1-0.7-0.2-1.1-0.3c-0.3-0.1-0.6-0.3-0.8-0.5C133.2,43.9,133,43.7,132.9,43.6z"/>
			<path class="st0" d="M144.8,43.9v4.2c0,0.2-0.1,0.4-0.3,0.6c-0.2,0.2-0.5,0.3-0.8,0.3c-0.4,0-0.6-0.1-0.9-0.3
				c-0.2-0.2-0.3-0.4-0.3-0.6v-9.5c0-0.6,0.1-1.1,0.3-1.6c0.2-0.5,0.5-0.9,0.8-1.2c0.4-0.4,0.8-0.6,1.4-0.8c0.5-0.2,1.2-0.3,1.9-0.3
				c0.8,0,1.4,0.1,2,0.4c0.6,0.2,1,0.6,1.4,1c0.4,0.4,0.7,0.9,0.8,1.4c0.2,0.5,0.3,1.1,0.3,1.7v1.2c0,0.6-0.1,1.2-0.2,1.7
				c-0.2,0.5-0.4,1-0.7,1.4c-0.3,0.4-0.7,0.7-1.3,1c-0.5,0.2-1.1,0.4-1.8,0.4c-0.5,0-1-0.1-1.4-0.3c-0.4-0.2-0.7-0.4-1-0.8
				L144.8,43.9z M144.8,40.7c0,0.7,0.2,1.2,0.6,1.6c0.4,0.3,0.9,0.5,1.5,0.5c0.7,0,1.2-0.2,1.6-0.6c0.4-0.4,0.6-1,0.6-1.7v-1.3
				c0-0.7-0.2-1.2-0.6-1.7c-0.4-0.4-1-0.6-1.6-0.6c-0.6,0-1.1,0.1-1.5,0.4c-0.4,0.3-0.6,0.7-0.6,1.3V40.7z"/>
			<path class="st0" d="M154,32.2c0-0.2,0.1-0.4,0.3-0.6c0.2-0.2,0.5-0.3,0.9-0.3c0.3,0,0.6,0.1,0.8,0.3c0.2,0.2,0.3,0.4,0.3,0.6
				v0.5c0,0.2-0.1,0.4-0.3,0.6c-0.2,0.2-0.5,0.3-0.8,0.3c-0.4,0-0.6-0.1-0.9-0.3c-0.2-0.2-0.3-0.4-0.3-0.6V32.2z M154,35.7
				c0-0.2,0.1-0.4,0.3-0.6c0.2-0.2,0.5-0.3,0.9-0.3c0.3,0,0.6,0.1,0.8,0.3c0.2,0.2,0.3,0.4,0.3,0.6V44c0,0.2-0.1,0.4-0.3,0.6
				c-0.2,0.2-0.5,0.3-0.8,0.3c-0.4,0-0.6-0.1-0.9-0.3c-0.2-0.2-0.3-0.4-0.3-0.6V35.7z"/>
			<path class="st0" d="M159.9,35v-2c0-0.2,0.1-0.4,0.3-0.6c0.2-0.2,0.5-0.3,0.9-0.3c0.3,0,0.6,0.1,0.8,0.3c0.2,0.2,0.3,0.4,0.3,0.6
				v2h1.5c0.2,0,0.4,0.1,0.6,0.2c0.2,0.2,0.3,0.4,0.3,0.6c0,0.3-0.1,0.5-0.3,0.7c-0.2,0.2-0.4,0.2-0.6,0.2h-1.5v4.7
				c0,0.5,0.1,0.9,0.2,1.1c0.1,0.2,0.4,0.3,0.6,0.3c0.3,0,0.5,0,0.7-0.1c0.2,0,0.4-0.1,0.6-0.1c0.3,0,0.5,0.1,0.7,0.2
				c0.1,0.2,0.2,0.4,0.2,0.7c0,0.2-0.1,0.5-0.2,0.6c-0.1,0.2-0.3,0.3-0.5,0.4c-0.2,0.1-0.5,0.2-0.7,0.2c-0.3,0-0.6,0.1-0.9,0.1
				c-1,0-1.8-0.3-2.2-0.8c-0.5-0.5-0.7-1.4-0.7-2.7v-4.7h-0.8c-0.2,0-0.4-0.1-0.6-0.2c-0.2-0.2-0.3-0.4-0.3-0.7
				c0-0.3,0.1-0.5,0.3-0.6c0.2-0.2,0.4-0.2,0.6-0.2H159.9z"/>
			<path class="st0" d="M174.7,45.1c-0.3,0-0.6-0.1-0.8-0.3c-0.2-0.2-0.3-0.4-0.3-0.6v-0.3l-0.2-0.1c-0.1,0.2-0.2,0.3-0.4,0.5
				c-0.1,0.1-0.3,0.3-0.5,0.4c-0.2,0.1-0.4,0.2-0.7,0.3c-0.3,0.1-0.6,0.1-1,0.1c-0.6,0-1.2-0.1-1.6-0.3c-0.5-0.2-0.9-0.5-1.2-0.9
				c-0.3-0.4-0.5-0.8-0.7-1.3c-0.2-0.5-0.2-1-0.2-1.5v-1.7c0-0.5,0.1-1.1,0.3-1.6c0.2-0.5,0.5-1,0.9-1.5c0.4-0.4,0.9-0.8,1.4-1
				c0.6-0.3,1.2-0.4,2-0.4c0.7,0,1.3,0.1,1.9,0.3c0.5,0.2,1,0.5,1.3,0.8c0.3,0.3,0.6,0.8,0.7,1.2c0.2,0.5,0.2,1,0.2,1.5v5.5
				c0,0.2-0.1,0.4-0.3,0.6C175.4,45,175.1,45.1,174.7,45.1z M173.6,38.7c0-0.7-0.2-1.1-0.5-1.4c-0.3-0.3-0.8-0.4-1.4-0.4
				c-0.3,0-0.6,0.1-0.9,0.2c-0.3,0.1-0.5,0.3-0.7,0.5c-0.2,0.2-0.3,0.5-0.5,0.7c-0.1,0.3-0.2,0.6-0.2,0.9v1.9c0,0.5,0.2,0.9,0.5,1.2
				c0.4,0.3,0.8,0.5,1.3,0.5c0.3,0,0.6,0,0.8-0.1c0.3-0.1,0.5-0.2,0.7-0.4c0.2-0.2,0.4-0.4,0.5-0.7c0.1-0.3,0.2-0.6,0.2-1V38.7z"/>
			<path class="st0" d="M178.9,32.4c0-0.2,0.1-0.4,0.3-0.6c0.2-0.2,0.5-0.3,0.9-0.3c0.3,0,0.6,0.1,0.8,0.3c0.2,0.2,0.3,0.4,0.3,0.6
				V44c0,0.2-0.1,0.4-0.3,0.6c-0.2,0.2-0.5,0.3-0.8,0.3c-0.4,0-0.6-0.1-0.9-0.3c-0.2-0.2-0.3-0.4-0.3-0.6V32.4z"/>
		</g>
		<g>
			<path class="st0" d="M115.6,63c-0.3,0-0.6-0.1-0.8-0.3c-0.2-0.2-0.4-0.4-0.5-0.6l-2.2-4.6v8.2c0,0.2-0.1,0.4-0.3,0.6
				c-0.2,0.2-0.5,0.3-0.8,0.3c-0.4,0-0.6-0.1-0.9-0.3c-0.2-0.2-0.3-0.4-0.3-0.6V54.7c0-0.2,0.1-0.4,0.3-0.6c0.2-0.2,0.5-0.3,0.9-0.3
				h0.3c0.3,0,0.6,0.1,0.8,0.2c0.2,0.1,0.4,0.3,0.5,0.5l2.9,5.8l2.9-5.8c0.1-0.2,0.3-0.4,0.5-0.5c0.2-0.1,0.5-0.2,0.8-0.2l0.3,0
				c0.4,0,0.7,0.1,0.9,0.3c0.2,0.2,0.3,0.4,0.3,0.6v11.1c0,0.2-0.1,0.4-0.3,0.6c-0.2,0.2-0.5,0.3-0.9,0.3c-0.3,0-0.6-0.1-0.8-0.3
				c-0.2-0.2-0.3-0.4-0.3-0.6v-8.2l-2.2,4.6c-0.1,0.2-0.3,0.4-0.5,0.6C116.2,62.9,115.9,63,115.6,63z"/>
			<path class="st0" d="M128.5,66.7c-0.7,0-1.3-0.1-1.9-0.3c-0.5-0.2-1-0.5-1.4-0.9c-0.4-0.4-0.6-0.8-0.8-1.4
				c-0.2-0.5-0.3-1.1-0.3-1.7v-4.9c0-0.2,0.1-0.4,0.3-0.6c0.2-0.2,0.5-0.3,0.9-0.3c0.3,0,0.6,0.1,0.8,0.3c0.2,0.2,0.3,0.4,0.3,0.6v5
				c0,0.7,0.2,1.2,0.6,1.6c0.4,0.3,0.9,0.5,1.5,0.5c0.6,0,1.1-0.2,1.5-0.5c0.4-0.3,0.6-0.9,0.6-1.6v-5c0-0.2,0.1-0.4,0.3-0.6
				c0.2-0.2,0.5-0.3,0.8-0.3c0.3,0,0.6,0.1,0.8,0.3c0.2,0.2,0.3,0.4,0.3,0.6v4.9c0,0.6-0.1,1.2-0.3,1.7c-0.2,0.5-0.5,1-0.8,1.4
				c-0.4,0.4-0.8,0.7-1.4,0.9C129.9,66.6,129.2,66.7,128.5,66.7z"/>
			<path class="st0" d="M140,56.5c0.7,0,1.3,0.1,1.9,0.3c0.5,0.2,1,0.5,1.4,0.8c0.4,0.4,0.6,0.8,0.8,1.3c0.2,0.5,0.3,1.1,0.3,1.7
				v5.2c0,0.2-0.1,0.4-0.3,0.6c-0.2,0.2-0.5,0.3-0.8,0.3c-0.3,0-0.6-0.1-0.8-0.3c-0.2-0.2-0.3-0.4-0.3-0.6v-5c0-0.7-0.2-1.2-0.6-1.6
				c-0.4-0.3-0.9-0.5-1.5-0.5c-0.6,0-1.1,0.2-1.5,0.5c-0.4,0.3-0.6,0.9-0.6,1.6v5c0,0.2-0.1,0.4-0.3,0.6c-0.2,0.2-0.5,0.3-0.8,0.3
				c-0.4,0-0.6-0.1-0.9-0.3c-0.2-0.2-0.3-0.4-0.3-0.6v-5c0-0.6,0.1-1.2,0.3-1.7c0.2-0.5,0.5-1,0.8-1.4c0.4-0.4,0.8-0.7,1.4-0.9
				C138.6,56.6,139.2,56.5,140,56.5z"/>
			<path class="st0" d="M147.2,53.9c0-0.2,0.1-0.4,0.3-0.6c0.2-0.2,0.5-0.3,0.9-0.3c0.3,0,0.6,0.1,0.8,0.3c0.2,0.2,0.3,0.4,0.3,0.6
				v0.5c0,0.2-0.1,0.4-0.3,0.6c-0.2,0.2-0.5,0.3-0.8,0.3c-0.4,0-0.6-0.1-0.9-0.3c-0.2-0.2-0.3-0.4-0.3-0.6V53.9z M147.2,57.4
				c0-0.2,0.1-0.4,0.3-0.6c0.2-0.2,0.5-0.3,0.9-0.3c0.3,0,0.6,0.1,0.8,0.3c0.2,0.2,0.3,0.4,0.3,0.6v8.4c0,0.2-0.1,0.4-0.3,0.6
				c-0.2,0.2-0.5,0.3-0.8,0.3c-0.4,0-0.6-0.1-0.9-0.3c-0.2-0.2-0.3-0.4-0.3-0.6V57.4z"/>
			<path class="st0" d="M152.2,60.8c0-0.6,0.1-1.1,0.2-1.7c0.2-0.5,0.4-1,0.8-1.4c0.4-0.4,0.8-0.7,1.4-0.9c0.5-0.2,1.2-0.3,2-0.3
				c0.7,0,1.2,0.1,1.7,0.3c0.5,0.2,0.9,0.4,1.2,0.7c0.2,0.2,0.3,0.4,0.3,0.6c0,0.3,0,0.5-0.2,0.7c-0.1,0.2-0.3,0.3-0.6,0.4
				c-0.3,0.1-0.6,0-0.9-0.2c-0.2-0.1-0.4-0.2-0.6-0.3c-0.2-0.1-0.5-0.1-0.9-0.1c-0.7,0-1.2,0.2-1.5,0.6c-0.3,0.4-0.5,1-0.5,1.6v1.4
				c0,0.7,0.2,1.2,0.5,1.6c0.3,0.4,0.8,0.6,1.5,0.6c0.3,0,0.6,0,0.9-0.1c0.3-0.1,0.5-0.2,0.6-0.2c0.3-0.1,0.5-0.2,0.8-0.1
				c0.2,0,0.4,0.2,0.6,0.3c0.1,0.2,0.2,0.4,0.3,0.6c0,0.2,0,0.5-0.2,0.7c-0.2,0.3-0.6,0.6-1.2,0.8c-0.5,0.2-1.1,0.3-1.8,0.3
				c-0.8,0-1.4-0.1-2-0.3c-0.5-0.2-1-0.5-1.4-0.9c-0.4-0.4-0.6-0.8-0.8-1.4c-0.2-0.5-0.2-1.1-0.2-1.7V60.8z"/>
			<path class="st0" d="M161.9,53.9c0-0.2,0.1-0.4,0.3-0.6c0.2-0.2,0.5-0.3,0.9-0.3c0.3,0,0.6,0.1,0.8,0.3c0.2,0.2,0.3,0.4,0.3,0.6
				v0.5c0,0.2-0.1,0.4-0.3,0.6c-0.2,0.2-0.5,0.3-0.8,0.3c-0.4,0-0.6-0.1-0.9-0.3c-0.2-0.2-0.3-0.4-0.3-0.6V53.9z M161.9,57.4
				c0-0.2,0.1-0.4,0.3-0.6c0.2-0.2,0.5-0.3,0.9-0.3c0.3,0,0.6,0.1,0.8,0.3c0.2,0.2,0.3,0.4,0.3,0.6v8.4c0,0.2-0.1,0.4-0.3,0.6
				c-0.2,0.2-0.5,0.3-0.8,0.3c-0.4,0-0.6-0.1-0.9-0.3c-0.2-0.2-0.3-0.4-0.3-0.6V57.4z"/>
			<path class="st0" d="M169.5,65.7v4.2c0,0.2-0.1,0.4-0.3,0.6c-0.2,0.2-0.5,0.3-0.8,0.3c-0.4,0-0.6-0.1-0.9-0.3
				c-0.2-0.2-0.3-0.4-0.3-0.6v-9.5c0-0.6,0.1-1.1,0.3-1.6c0.2-0.5,0.5-0.9,0.8-1.2c0.4-0.4,0.8-0.6,1.4-0.8c0.5-0.2,1.2-0.3,1.9-0.3
				c0.8,0,1.4,0.1,2,0.4c0.6,0.2,1,0.6,1.4,1c0.4,0.4,0.7,0.9,0.8,1.4c0.2,0.5,0.3,1.1,0.3,1.7v1.2c0,0.6-0.1,1.2-0.2,1.7
				c-0.2,0.5-0.4,1-0.7,1.4c-0.3,0.4-0.7,0.7-1.3,1c-0.5,0.2-1.1,0.4-1.8,0.4c-0.5,0-1-0.1-1.4-0.3c-0.4-0.2-0.7-0.4-1-0.8
				L169.5,65.7z M169.5,62.5c0,0.7,0.2,1.2,0.6,1.6c0.4,0.3,0.9,0.5,1.5,0.5c0.7,0,1.2-0.2,1.6-0.6c0.4-0.4,0.6-1,0.6-1.7V61
				c0-0.7-0.2-1.2-0.6-1.7c-0.4-0.4-1-0.6-1.6-0.6c-0.6,0-1.1,0.1-1.5,0.4c-0.4,0.3-0.6,0.7-0.6,1.3V62.5z"/>
			<path class="st0" d="M185.9,66.8c-0.3,0-0.6-0.1-0.8-0.3c-0.2-0.2-0.3-0.4-0.3-0.6v-0.3l-0.2-0.1c-0.1,0.2-0.2,0.3-0.4,0.5
				c-0.1,0.1-0.3,0.3-0.5,0.4c-0.2,0.1-0.4,0.2-0.7,0.3c-0.3,0.1-0.6,0.1-1,0.1c-0.6,0-1.2-0.1-1.6-0.3c-0.5-0.2-0.9-0.5-1.2-0.9
				c-0.3-0.4-0.5-0.8-0.7-1.3c-0.2-0.5-0.2-1-0.2-1.5V61c0-0.5,0.1-1.1,0.3-1.6c0.2-0.5,0.5-1,0.9-1.5c0.4-0.4,0.9-0.8,1.4-1
				c0.6-0.3,1.2-0.4,2-0.4c0.7,0,1.3,0.1,1.9,0.3c0.5,0.2,1,0.5,1.3,0.8c0.3,0.3,0.6,0.8,0.7,1.2c0.2,0.5,0.2,1,0.2,1.5v5.5
				c0,0.2-0.1,0.4-0.3,0.6C186.6,66.7,186.3,66.8,185.9,66.8z M184.8,60.4c0-0.7-0.2-1.1-0.5-1.4c-0.3-0.3-0.8-0.4-1.4-0.4
				c-0.3,0-0.6,0.1-0.9,0.2c-0.3,0.1-0.5,0.3-0.7,0.5s-0.3,0.5-0.5,0.7c-0.1,0.3-0.2,0.6-0.2,0.9v1.9c0,0.5,0.2,0.9,0.5,1.2
				c0.4,0.3,0.8,0.5,1.3,0.5c0.3,0,0.6,0,0.8-0.1c0.3-0.1,0.5-0.2,0.7-0.4c0.2-0.2,0.4-0.4,0.5-0.7c0.1-0.3,0.2-0.6,0.2-1V60.4z"/>
			<path class="st0" d="M190.1,54.1c0-0.2,0.1-0.4,0.3-0.6c0.2-0.2,0.5-0.3,0.9-0.3c0.3,0,0.6,0.1,0.8,0.3c0.2,0.2,0.3,0.4,0.3,0.6
				v11.7c0,0.2-0.1,0.4-0.3,0.6c-0.2,0.2-0.5,0.3-0.8,0.3c-0.4,0-0.6-0.1-0.9-0.3c-0.2-0.2-0.3-0.4-0.3-0.6V54.1z"/>
		</g>
		<g>
			<path class="st0" d="M112.9,72.5c0.5,0,1,0.1,1.4,0.3c0.4,0.2,0.7,0.5,1,0.8l0.1,0V70c0-0.2,0.1-0.4,0.3-0.6
				c0.2-0.2,0.5-0.3,0.8-0.3c0.4,0,0.7,0.1,0.9,0.3c0.2,0.2,0.3,0.4,0.3,0.6v8.4c0,0.6-0.1,1.2-0.3,1.7c-0.2,0.5-0.5,1-0.8,1.4
				c-0.4,0.4-0.8,0.7-1.4,0.9c-0.5,0.2-1.2,0.3-1.9,0.3c-0.8,0-1.4-0.1-2-0.4c-0.6-0.2-1-0.6-1.4-1c-0.4-0.4-0.7-0.9-0.9-1.4
				c-0.2-0.5-0.3-1.1-0.3-1.7V77c0-0.6,0.1-1.2,0.2-1.7c0.2-0.5,0.4-1,0.7-1.4c0.3-0.4,0.7-0.7,1.3-1
				C111.5,72.6,112.1,72.5,112.9,72.5z M113.4,80.6c0.6,0,1.1-0.2,1.5-0.5c0.4-0.3,0.6-0.8,0.6-1.6v-1.9c0-0.7-0.2-1.2-0.6-1.5
				c-0.4-0.3-0.9-0.5-1.4-0.5c-0.7,0-1.2,0.2-1.6,0.6c-0.4,0.4-0.6,1-0.6,1.6v1.4c0,0.7,0.2,1.2,0.6,1.6
				C112.2,80.4,112.7,80.6,113.4,80.6z"/>
			<path class="st0" d="M128.6,76.5c0,0.6-0.1,1-0.4,1.3c-0.2,0.2-0.6,0.4-1.2,0.4h-4.6v0.5c0,0.6,0.2,1.1,0.6,1.5
				c0.4,0.4,0.9,0.6,1.6,0.6c0.4,0,0.7,0,1-0.1c0.3,0,0.5-0.1,0.7-0.2c0.2-0.1,0.4-0.2,0.5-0.3c0.2-0.1,0.3-0.1,0.5-0.1
				c0.3,0,0.5,0.1,0.6,0.2c0.1,0.2,0.2,0.4,0.2,0.6c0,0.2-0.1,0.4-0.3,0.6c-0.2,0.2-0.4,0.4-0.7,0.6c-0.3,0.2-0.7,0.3-1.1,0.4
				c-0.4,0.1-0.9,0.2-1.4,0.2c-0.7,0-1.3-0.1-1.8-0.3c-0.5-0.2-1-0.5-1.4-0.8c-0.4-0.4-0.7-0.8-0.9-1.2c-0.2-0.5-0.3-1-0.3-1.5v-2.1
				c0-0.6,0.1-1.1,0.3-1.6c0.2-0.5,0.5-1,0.9-1.3c0.4-0.4,0.8-0.7,1.4-0.9c0.5-0.2,1.1-0.3,1.7-0.3c0.7,0,1.4,0.1,1.9,0.4
				c0.5,0.2,1,0.6,1.3,0.9c0.3,0.4,0.6,0.8,0.7,1.3C128.6,75.6,128.6,76.1,128.6,76.5z M124.5,74.4c-0.6,0-1.1,0.2-1.4,0.6
				c-0.3,0.4-0.5,0.9-0.6,1.5h4v-0.3c0-0.5-0.2-1-0.6-1.3C125.5,74.6,125.1,74.4,124.5,74.4z"/>
			<path class="st0" d="M145.6,81.5c0.1,0.2,0,0.5-0.1,0.7c-0.1,0.2-0.4,0.4-0.7,0.5c-0.3,0.1-0.6,0.1-0.9-0.1
				c-0.3-0.1-0.4-0.3-0.5-0.5l-0.7-2.3h-4.3l-0.7,2.3c-0.1,0.2-0.2,0.4-0.5,0.5c-0.3,0.1-0.5,0.2-0.9,0.1c-0.4-0.1-0.6-0.3-0.8-0.5
				c-0.2-0.2-0.2-0.5-0.1-0.7l3.8-10.9c0.1-0.2,0.2-0.4,0.4-0.6c0.2-0.2,0.5-0.2,0.8-0.2c0.3,0,0.6,0.1,0.8,0.2
				c0.2,0.2,0.4,0.4,0.5,0.6L145.6,81.5z M139,77.8h3.1l-1.5-4.9L139,77.8z"/>
			<path class="st0" d="M151.9,74.7c-0.3,0-0.5,0-0.8,0.1c-0.2,0-0.4,0.1-0.6,0.2c-0.2,0.1-0.3,0.3-0.4,0.5
				c-0.1,0.2-0.1,0.5-0.1,0.9v5.5c0,0.2-0.1,0.4-0.3,0.6c-0.2,0.2-0.5,0.3-0.8,0.3c-0.4,0-0.6-0.1-0.9-0.3c-0.2-0.2-0.3-0.4-0.3-0.6
				v-5.4c0-1.2,0.3-2.2,1-2.9c0.7-0.7,1.7-1,3.2-1c0.7,0,1.2,0.1,1.5,0.4c0.3,0.3,0.5,0.6,0.4,1.1c0,0.2-0.1,0.4-0.3,0.5
				c-0.1,0.1-0.3,0.2-0.5,0.2c-0.2,0-0.4,0-0.6,0C152.3,74.7,152.1,74.7,151.9,74.7z"/>
			<path class="st0" d="M162.6,82.8c-0.3,0-0.6-0.1-0.8-0.3c-0.2-0.2-0.3-0.4-0.3-0.6v-0.3l-0.2-0.1c-0.1,0.2-0.2,0.3-0.4,0.5
				c-0.1,0.1-0.3,0.3-0.5,0.4c-0.2,0.1-0.4,0.2-0.7,0.3c-0.3,0.1-0.6,0.1-1,0.1c-0.6,0-1.2-0.1-1.6-0.3c-0.5-0.2-0.9-0.5-1.2-0.9
				c-0.3-0.4-0.5-0.8-0.7-1.3c-0.2-0.5-0.2-1-0.2-1.5v-1.7c0-0.5,0.1-1.1,0.3-1.6c0.2-0.5,0.5-1,0.9-1.5c0.4-0.4,0.9-0.8,1.4-1
				c0.6-0.3,1.2-0.4,2-0.4c0.7,0,1.3,0.1,1.9,0.3c0.5,0.2,1,0.5,1.3,0.8c0.3,0.3,0.6,0.8,0.7,1.2c0.2,0.5,0.2,1,0.2,1.5v5.5
				c0,0.2-0.1,0.4-0.3,0.6C163.3,82.7,163,82.8,162.6,82.8z M161.5,76.5c0-0.7-0.2-1.1-0.5-1.4c-0.3-0.3-0.8-0.4-1.4-0.4
				c-0.3,0-0.6,0.1-0.9,0.2c-0.3,0.1-0.5,0.3-0.7,0.5c-0.2,0.2-0.3,0.5-0.5,0.7c-0.1,0.3-0.2,0.6-0.2,0.9v1.9c0,0.5,0.2,0.9,0.5,1.2
				c0.4,0.3,0.8,0.5,1.3,0.5c0.3,0,0.6,0,0.8-0.1c0.3-0.1,0.5-0.2,0.7-0.4c0.2-0.2,0.4-0.4,0.5-0.7c0.1-0.3,0.2-0.6,0.2-1V76.5z"/>
			<path class="st0" d="M175,82.5c0,0.7-0.1,1.4-0.4,1.9c-0.2,0.5-0.6,1-1,1.3c-0.4,0.3-0.9,0.6-1.4,0.8c-0.5,0.2-1.1,0.3-1.6,0.3
				c-0.5,0-0.9,0-1.3-0.1c-0.4-0.1-0.7-0.1-0.8-0.2c-0.4-0.3-0.6-0.6-0.6-1c0-0.3,0.1-0.5,0.3-0.7c0.2-0.2,0.4-0.3,0.8-0.3
				c0.1,0,0.3,0,0.6,0.1c0.3,0.1,0.6,0.1,1.1,0.1c0.3,0,0.6,0,0.8-0.1c0.2-0.1,0.5-0.2,0.6-0.3c0.2-0.2,0.3-0.4,0.4-0.7
				c0.1-0.3,0.2-0.7,0.2-1.1v-1l-0.1,0c-0.2,0.4-0.5,0.6-0.9,0.9c-0.4,0.2-0.9,0.3-1.6,0.3c-1.2,0-2.2-0.4-2.8-1.1
				c-0.7-0.8-1-1.8-1-3.1v-1.2c0-0.6,0.1-1.2,0.3-1.8c0.2-0.6,0.5-1.1,0.9-1.5c0.4-0.4,0.9-0.8,1.4-1.1c0.6-0.3,1.2-0.4,2-0.4
				c0.7,0,1.3,0.1,1.9,0.3c0.5,0.2,1,0.5,1.3,0.8c0.3,0.3,0.6,0.7,0.7,1.2c0.2,0.5,0.2,0.9,0.2,1.5V82.5z M170.7,80.6
				c0.5,0,1-0.2,1.4-0.5c0.4-0.3,0.6-0.8,0.6-1.5v-2.5c0-0.5-0.2-0.9-0.5-1.1c-0.3-0.2-0.8-0.4-1.4-0.4c-0.3,0-0.6,0.1-0.9,0.2
				c-0.3,0.1-0.5,0.3-0.7,0.5c-0.2,0.2-0.3,0.5-0.5,0.8c-0.1,0.3-0.2,0.6-0.2,1v1.3C168.6,79.9,169.3,80.6,170.7,80.6z"/>
			<path class="st0" d="M182.1,82.7c-0.7,0-1.3-0.1-1.9-0.3c-0.5-0.2-1-0.5-1.4-0.9c-0.4-0.4-0.6-0.8-0.8-1.4
				c-0.2-0.5-0.3-1.1-0.3-1.7v-4.9c0-0.2,0.1-0.4,0.3-0.6c0.2-0.2,0.5-0.3,0.9-0.3c0.3,0,0.6,0.1,0.8,0.3c0.2,0.2,0.3,0.4,0.3,0.6v5
				c0,0.7,0.2,1.2,0.6,1.6c0.4,0.3,0.9,0.5,1.5,0.5c0.6,0,1.1-0.2,1.5-0.5c0.4-0.3,0.6-0.9,0.6-1.6v-5c0-0.2,0.1-0.4,0.3-0.6
				c0.2-0.2,0.5-0.3,0.8-0.3c0.3,0,0.6,0.1,0.8,0.3c0.2,0.2,0.3,0.4,0.3,0.6v4.9c0,0.6-0.1,1.2-0.3,1.7c-0.2,0.5-0.5,1-0.8,1.4
				c-0.4,0.4-0.8,0.7-1.4,0.9C183.4,82.6,182.8,82.7,182.1,82.7z"/>
			<path class="st0" d="M196.6,82.8c-0.3,0-0.6-0.1-0.8-0.3c-0.2-0.2-0.3-0.4-0.3-0.6v-0.3l-0.2-0.1c-0.1,0.2-0.2,0.3-0.4,0.5
				c-0.1,0.1-0.3,0.3-0.5,0.4c-0.2,0.1-0.4,0.2-0.7,0.3c-0.3,0.1-0.6,0.1-1,0.1c-0.6,0-1.2-0.1-1.6-0.3c-0.5-0.2-0.9-0.5-1.2-0.9
				c-0.3-0.4-0.5-0.8-0.7-1.3c-0.2-0.5-0.2-1-0.2-1.5v-1.7c0-0.5,0.1-1.1,0.3-1.6c0.2-0.5,0.5-1,0.9-1.5c0.4-0.4,0.9-0.8,1.4-1
				c0.6-0.3,1.2-0.4,2-0.4c0.7,0,1.3,0.1,1.9,0.3c0.5,0.2,1,0.5,1.3,0.8c0.3,0.3,0.6,0.8,0.7,1.2c0.2,0.5,0.2,1,0.2,1.5v5.5
				c0,0.2-0.1,0.4-0.3,0.6C197.2,82.7,196.9,82.8,196.6,82.8z M195.5,76.5c0-0.7-0.2-1.1-0.5-1.4c-0.3-0.3-0.8-0.4-1.4-0.4
				c-0.3,0-0.6,0.1-0.9,0.2c-0.3,0.1-0.5,0.3-0.7,0.5c-0.2,0.2-0.3,0.5-0.5,0.7c-0.1,0.3-0.2,0.6-0.2,0.9v1.9c0,0.5,0.2,0.9,0.5,1.2
				c0.4,0.3,0.8,0.5,1.3,0.5c0.3,0,0.6,0,0.8-0.1c0.3-0.1,0.5-0.2,0.7-0.4c0.2-0.2,0.4-0.4,0.5-0.7c0.1-0.3,0.2-0.6,0.2-1V76.5z"/>
			<path class="st0" d="M200.6,73.3c0-0.2,0.1-0.4,0.3-0.6c0.2-0.2,0.5-0.3,0.9-0.3c0.3,0,0.6,0.1,0.8,0.3c0.2,0.2,0.3,0.4,0.3,0.6
				v8.5c0,0.2-0.1,0.4-0.3,0.6c-0.2,0.2-0.5,0.3-0.8,0.3c-0.4,0-0.6-0.1-0.9-0.3c-0.2-0.2-0.3-0.4-0.3-0.6V73.3z M202,70.9
				c-0.2,0.1-0.3,0-0.5,0c-0.2-0.1-0.4-0.3-0.5-0.5c-0.1-0.2-0.1-0.4,0-0.6c0.1-0.2,0.2-0.3,0.3-0.4l2.8-1.5c0.3-0.1,0.5-0.1,0.8,0
				c0.2,0.1,0.4,0.3,0.5,0.6c0.1,0.2,0.1,0.5,0.1,0.7c0,0.3-0.2,0.5-0.5,0.6L202,70.9z"/>
			<path class="st0" d="M210.1,72.5c0.7,0,1.3,0.1,1.9,0.3c0.5,0.2,1,0.5,1.4,0.8c0.4,0.4,0.6,0.8,0.8,1.3c0.2,0.5,0.3,1.1,0.3,1.7
				v5.2c0,0.2-0.1,0.4-0.3,0.6c-0.2,0.2-0.5,0.3-0.8,0.3c-0.3,0-0.6-0.1-0.8-0.3c-0.2-0.2-0.3-0.4-0.3-0.6v-5c0-0.7-0.2-1.2-0.6-1.6
				c-0.4-0.3-0.9-0.5-1.5-0.5s-1.1,0.2-1.5,0.5c-0.4,0.3-0.6,0.9-0.6,1.6v5c0,0.2-0.1,0.4-0.3,0.6c-0.2,0.2-0.5,0.3-0.8,0.3
				c-0.4,0-0.6-0.1-0.9-0.3c-0.2-0.2-0.3-0.4-0.3-0.6v-5c0-0.6,0.1-1.2,0.3-1.7c0.2-0.5,0.5-1,0.8-1.4c0.4-0.4,0.8-0.7,1.4-0.9
				C208.7,72.6,209.4,72.5,210.1,72.5z"/>
			<path class="st0" d="M224.6,82.8c-0.3,0-0.6-0.1-0.8-0.3c-0.2-0.2-0.3-0.4-0.3-0.6v-0.3l-0.2-0.1c-0.1,0.2-0.2,0.3-0.4,0.5
				c-0.1,0.1-0.3,0.3-0.5,0.4c-0.2,0.1-0.4,0.2-0.7,0.3c-0.3,0.1-0.6,0.1-1,0.1c-0.6,0-1.2-0.1-1.6-0.3c-0.5-0.2-0.9-0.5-1.2-0.9
				c-0.3-0.4-0.5-0.8-0.7-1.3c-0.2-0.5-0.2-1-0.2-1.5v-1.7c0-0.5,0.1-1.1,0.3-1.6c0.2-0.5,0.5-1,0.9-1.5c0.4-0.4,0.9-0.8,1.4-1
				c0.6-0.3,1.2-0.4,2-0.4c0.7,0,1.3,0.1,1.9,0.3c0.5,0.2,1,0.5,1.3,0.8c0.3,0.3,0.6,0.8,0.7,1.2c0.2,0.5,0.2,1,0.2,1.5v5.5
				c0,0.2-0.1,0.4-0.3,0.6C225.2,82.7,224.9,82.8,224.6,82.8z M223.5,76.5c0-0.7-0.2-1.1-0.5-1.4c-0.3-0.3-0.8-0.4-1.4-0.4
				c-0.3,0-0.6,0.1-0.9,0.2c-0.3,0.1-0.5,0.3-0.7,0.5c-0.2,0.2-0.3,0.5-0.5,0.7c-0.1,0.3-0.2,0.6-0.2,0.9v1.9c0,0.5,0.2,0.9,0.5,1.2
				c0.4,0.3,0.8,0.5,1.3,0.5c0.3,0,0.6,0,0.8-0.1c0.3-0.1,0.5-0.2,0.7-0.4c0.2-0.2,0.4-0.4,0.5-0.7c0.1-0.3,0.2-0.6,0.2-1V76.5z"/>
		</g>
	</g>
</g>
</svg>
